<svg width="42" height="42" viewBox="0 0 42 42" fill="none" xmlns="http://www.w3.org/2000/svg">
<path d="M15.75 11.8125V7.875" stroke="#7B2CBF" stroke-width="2.625" stroke-linecap="round" stroke-linejoin="round"/>
<path d="M26.25 34.125V30.1875" stroke="#7B2CBF" stroke-width="2.625" stroke-linecap="round" stroke-linejoin="round"/>
<path d="M11.8125 15.75H7.875" stroke="#7B2CBF" stroke-width="2.625" stroke-linecap="round" stroke-linejoin="round"/>
<path d="M34.125 26.25H30.1875" stroke="#7B2CBF" stroke-width="2.625" stroke-linecap="round" stroke-linejoin="round"/>
<path d="M11.6487 21.0656L9.79476 22.9195C8.56337 24.1509 7.87158 25.821 7.87158 27.5625C7.87158 28.4248 8.04142 29.2786 8.3714 30.0752C8.70138 30.8719 9.18504 31.5957 9.79476 32.2055C10.4045 32.8152 11.1283 33.2988 11.925 33.6288C12.7216 33.9588 13.5755 34.1286 14.4377 34.1286C16.1792 34.1286 17.8493 33.4368 19.0807 32.2055L20.9346 30.3516" stroke="#7B2CBF" stroke-width="2.625" stroke-linecap="round" stroke-linejoin="round"/>
<path d="M30.3516 20.9344L32.2055 19.0805C33.4369 17.8491 34.1287 16.1789 34.1287 14.4375C34.1287 12.696 33.4369 11.0259 32.2055 9.79452C30.9741 8.56313 29.304 7.87134 27.5625 7.87134C25.8211 7.87134 24.151 8.56313 22.9196 9.79452L21.0657 11.6484" stroke="#7B2CBF" stroke-width="2.625" stroke-linecap="round" stroke-linejoin="round"/>
</svg>
