<svg width="94" height="25" viewBox="0 0 94 25" fill="none" xmlns="http://www.w3.org/2000/svg">
<path d="M31.1364 19H27.0114V7.36364H31.1705C32.3409 7.36364 33.3485 7.59659 34.1932 8.0625C35.0379 8.52462 35.6875 9.18939 36.142 10.0568C36.6004 10.9242 36.8295 11.9621 36.8295 13.1705C36.8295 14.3826 36.6004 15.4242 36.142 16.2955C35.6875 17.1667 35.0341 17.8352 34.1818 18.3011C33.3333 18.767 32.3182 19 31.1364 19ZM29.4716 16.892H31.0341C31.7614 16.892 32.3731 16.7633 32.8693 16.5057C33.3693 16.2443 33.7443 15.8409 33.9943 15.2955C34.2481 14.7462 34.375 14.0379 34.375 13.1705C34.375 12.3106 34.2481 11.608 33.9943 11.0625C33.7443 10.517 33.3712 10.1155 32.875 9.85795C32.3788 9.60038 31.767 9.47159 31.0398 9.47159H29.4716V16.892ZM42.5838 19.1705C41.6861 19.1705 40.9134 18.9886 40.2656 18.625C39.6217 18.2576 39.1255 17.7386 38.777 17.0682C38.4285 16.3939 38.2543 15.5966 38.2543 14.6761C38.2543 13.7784 38.4285 12.9905 38.777 12.3125C39.1255 11.6345 39.616 11.1061 40.2486 10.7273C40.8849 10.3485 41.6312 10.1591 42.4872 10.1591C43.063 10.1591 43.599 10.2519 44.0952 10.4375C44.5952 10.6193 45.0308 10.8939 45.402 11.2614C45.777 11.6288 46.0687 12.0909 46.277 12.6477C46.4853 13.2008 46.5895 13.8485 46.5895 14.5909V15.2557H39.2202V13.7557H44.3111C44.3111 13.4072 44.2353 13.0985 44.0838 12.8295C43.9323 12.5606 43.7221 12.3504 43.4531 12.1989C43.188 12.0436 42.8793 11.9659 42.527 11.9659C42.1596 11.9659 41.8338 12.0511 41.5497 12.2216C41.2694 12.3883 41.0497 12.6136 40.8906 12.8977C40.7315 13.178 40.6501 13.4905 40.6463 13.8352V15.2614C40.6463 15.6932 40.7259 16.0663 40.8849 16.3807C41.0478 16.6951 41.277 16.9375 41.5724 17.108C41.8679 17.2784 42.2183 17.3636 42.6236 17.3636C42.8925 17.3636 43.1387 17.3258 43.3622 17.25C43.5857 17.1742 43.777 17.0606 43.9361 16.9091C44.0952 16.7576 44.2164 16.572 44.2997 16.3523L46.5384 16.5C46.4247 17.0379 46.1918 17.5076 45.8395 17.9091C45.491 18.3068 45.0402 18.6174 44.4872 18.8409C43.938 19.0606 43.3035 19.1705 42.5838 19.1705ZM56.071 10.2727L53.0199 19H50.2926L47.2415 10.2727H49.7983L51.6108 16.517H51.7017L53.5085 10.2727H56.071Z" fill="#76049E"/>
<path d="M61.0582 19V7.36364H63.5185V16.9716H68.5071V19H61.0582ZM70.0909 19V10.2727H72.5114V19H70.0909ZM71.3068 9.14773C70.947 9.14773 70.6383 9.02841 70.3807 8.78977C70.1269 8.54735 70 8.25758 70 7.92045C70 7.58712 70.1269 7.30114 70.3807 7.0625C70.6383 6.82008 70.947 6.69886 71.3068 6.69886C71.6667 6.69886 71.9735 6.82008 72.2273 7.0625C72.4848 7.30114 72.6136 7.58712 72.6136 7.92045C72.6136 8.25758 72.4848 8.54735 72.2273 8.78977C71.9735 9.02841 71.6667 9.14773 71.3068 9.14773ZM76.8707 13.9545V19H74.4503V10.2727H76.7571V11.8125H76.8594C77.0526 11.3049 77.3764 10.9034 77.831 10.608C78.2855 10.3087 78.8366 10.1591 79.4844 10.1591C80.0904 10.1591 80.6188 10.2917 81.0696 10.5568C81.5204 10.822 81.8707 11.2008 82.1207 11.6932C82.3707 12.1818 82.4957 12.7652 82.4957 13.4432V19H80.0753V13.875C80.0791 13.3409 79.9427 12.9242 79.6662 12.625C79.3897 12.322 79.009 12.1705 78.5241 12.1705C78.1984 12.1705 77.9105 12.2405 77.6605 12.3807C77.4143 12.5208 77.2211 12.7254 77.081 12.9943C76.9446 13.2595 76.8745 13.5795 76.8707 13.9545ZM86.5966 16.4886L86.6023 13.5852H86.9545L89.75 10.2727H92.5284L88.7727 14.6591H88.1989L86.5966 16.4886ZM84.4034 19V7.36364H86.8239V19H84.4034ZM89.858 19L87.2898 15.1989L88.9034 13.4886L92.6932 19H89.858Z" fill="black"/>
<path d="M27.0114 19H26.7114V19.3H27.0114V19ZM27.0114 7.36364V7.06364H26.7114V7.36364H27.0114ZM34.1932 8.0625L34.0483 8.32519L34.0492 8.32569L34.1932 8.0625ZM36.142 10.0568L35.8763 10.1961L35.8768 10.197L36.142 10.0568ZM36.142 16.2955L35.8765 16.1558L35.8761 16.1567L36.142 16.2955ZM34.1818 18.3011L34.0379 18.0379L34.0374 18.0382L34.1818 18.3011ZM29.4716 16.892H29.1716V17.192H29.4716V16.892ZM32.8693 16.5057L33.0075 16.7719L33.0083 16.7715L32.8693 16.5057ZM33.9943 15.2955L33.722 15.1696L33.7216 15.1705L33.9943 15.2955ZM33.9943 11.0625L33.7216 11.1875L33.7223 11.1891L33.9943 11.0625ZM32.875 9.85795L33.0132 9.59169L33.0132 9.59169L32.875 9.85795ZM29.4716 9.47159V9.17159H29.1716V9.47159H29.4716ZM31.1364 18.7H27.0114V19.3H31.1364V18.7ZM27.3114 19V7.36364H26.7114V19H27.3114ZM27.0114 7.66364H31.1705V7.06364H27.0114V7.66364ZM31.1705 7.66364C32.301 7.66364 33.2565 7.88847 34.0483 8.32519L34.3381 7.79981C33.4405 7.30472 32.3808 7.06364 31.1705 7.06364V7.66364ZM34.0492 8.32569C34.841 8.75889 35.4487 9.3801 35.8763 10.1961L36.4078 9.91757C35.9263 8.99868 35.2347 8.29035 34.3372 7.79931L34.0492 8.32569ZM35.8768 10.197C36.3076 11.0123 36.5295 11.9998 36.5295 13.1705H37.1295C37.1295 11.9244 36.8931 10.8362 36.4073 9.91666L35.8768 10.197ZM36.5295 13.1705C36.5295 14.345 36.3076 15.3365 35.8765 16.1558L36.4075 16.4351C36.8932 15.512 37.1295 14.4202 37.1295 13.1705H36.5295ZM35.8761 16.1567C35.4487 16.9759 34.8374 17.6008 34.0379 18.0379L34.3257 18.5644C35.2308 18.0696 35.9263 17.3574 36.408 16.4342L35.8761 16.1567ZM34.0374 18.0382C33.242 18.475 32.2788 18.7 31.1364 18.7V19.3C32.3576 19.3 33.4247 19.0591 34.3262 18.5641L34.0374 18.0382ZM29.4716 17.192H31.0341V16.592H29.4716V17.192ZM31.0341 17.192C31.7955 17.192 32.4577 17.0573 33.0075 16.7719L32.7311 16.2394C32.2885 16.4692 31.7272 16.592 31.0341 16.592V17.192ZM33.0083 16.7715C33.5711 16.4773 33.9912 16.0223 34.267 15.4205L33.7216 15.1705C33.4974 15.6595 33.1675 16.0113 32.7303 16.2398L33.0083 16.7715ZM34.2667 15.4213C34.5448 14.8193 34.675 14.0639 34.675 13.1705H34.075C34.075 14.0119 33.9514 14.6731 33.722 15.1696L34.2667 15.4213ZM34.675 13.1705C34.675 12.2843 34.5447 11.5343 34.2663 10.9359L33.7223 11.1891C33.9515 11.6816 34.075 12.3369 34.075 13.1705H34.675ZM34.267 10.9375C33.9914 10.336 33.5732 9.88238 33.0132 9.59169L32.7368 10.1242C33.1692 10.3487 33.4973 10.698 33.7216 11.1875L34.267 10.9375ZM33.0132 9.59169C32.4634 9.30629 31.8012 9.17159 31.0398 9.17159V9.77159C31.7329 9.77159 32.2942 9.89446 32.7368 10.1242L33.0132 9.59169ZM31.0398 9.17159H29.4716V9.77159H31.0398V9.17159ZM29.1716 9.47159V16.892H29.7716V9.47159H29.1716ZM40.2656 18.625L40.1169 18.8856L40.1188 18.8866L40.2656 18.625ZM38.777 17.0682L38.5105 17.2059L38.5108 17.2065L38.777 17.0682ZM38.777 12.3125L38.5102 12.1754L38.5102 12.1754L38.777 12.3125ZM40.2486 10.7273L40.0951 10.4695L40.0945 10.4699L40.2486 10.7273ZM44.0952 10.4375L43.9901 10.7185L43.9926 10.7194L44.0952 10.4375ZM45.402 11.2614L45.1909 11.4746L45.192 11.4756L45.402 11.2614ZM46.277 12.6477L45.996 12.7529L45.9962 12.7535L46.277 12.6477ZM46.5895 15.2557V15.5557H46.8895V15.2557H46.5895ZM39.2202 15.2557H38.9202V15.5557H39.2202V15.2557ZM39.2202 13.7557V13.4557H38.9202V13.7557H39.2202ZM44.3111 13.7557V14.0557H44.6111V13.7557H44.3111ZM44.0838 12.8295L43.8224 12.9768L43.8224 12.9768L44.0838 12.8295ZM43.4531 12.1989L43.3015 12.4578L43.3059 12.4602L43.4531 12.1989ZM41.5497 12.2216L41.703 12.4795L41.7041 12.4788L41.5497 12.2216ZM40.8906 12.8977L41.1515 13.0458L41.1524 13.0443L40.8906 12.8977ZM40.6463 13.8352L40.3463 13.8319V13.8352H40.6463ZM40.8849 16.3807L40.6173 16.5161L40.6186 16.5187L40.8849 16.3807ZM43.3622 17.25L43.2659 16.9659L43.2659 16.9659L43.3622 17.25ZM43.9361 16.9091L43.7292 16.6918L43.7292 16.6918L43.9361 16.9091ZM44.2997 16.3523L44.3195 16.0529L44.098 16.0383L44.0192 16.2459L44.2997 16.3523ZM46.5384 16.5L46.8319 16.562L46.9034 16.2234L46.5581 16.2007L46.5384 16.5ZM45.8395 17.9091L45.614 17.7112L45.6138 17.7114L45.8395 17.9091ZM44.4872 18.8409L44.5986 19.1195L44.5996 19.1191L44.4872 18.8409ZM42.5838 18.8705C41.7268 18.8705 41.0069 18.6971 40.4125 18.3634L40.1188 18.8866C40.8198 19.2802 41.6453 19.4705 42.5838 19.4705V18.8705ZM40.4143 18.3644C39.8215 18.0262 39.3656 17.5501 39.0432 16.9298L38.5108 17.2065C38.8853 17.9271 39.4219 18.489 40.1169 18.8856L40.4143 18.3644ZM39.0435 16.9304C38.7212 16.3069 38.5543 15.5587 38.5543 14.6761H37.9543C37.9543 15.6344 38.1358 16.481 38.5105 17.2059L39.0435 16.9304ZM38.5543 14.6761C38.5543 13.8177 38.7207 13.0783 39.0438 12.4496L38.5102 12.1754C38.1363 12.9027 37.9543 13.7392 37.9543 14.6761H38.5543ZM39.0438 12.4496C39.3676 11.8196 39.8199 11.3337 40.4027 10.9847L40.0945 10.4699C39.4121 10.8785 38.8833 11.4493 38.5102 12.1754L39.0438 12.4496ZM40.402 10.9851C40.9851 10.638 41.6766 10.4591 42.4872 10.4591V9.85909C41.5857 9.85909 40.7847 10.059 40.0951 10.4695L40.402 10.9851ZM42.4872 10.4591C43.0302 10.4591 43.5303 10.5465 43.9901 10.7185L44.2003 10.1565C43.6676 9.95728 43.0957 9.85909 42.4872 9.85909V10.4591ZM43.9926 10.7194C44.4527 10.8867 44.8511 11.1382 45.1909 11.4746L45.613 11.0481C45.2104 10.6497 44.7376 10.3519 44.1977 10.1556L43.9926 10.7194ZM45.192 11.4756C45.5317 11.8085 45.801 12.2317 45.996 12.7529L46.558 12.5426C46.3363 11.9501 46.0222 11.4491 45.6119 11.0471L45.192 11.4756ZM45.9962 12.7535C46.1891 13.2653 46.2895 13.8757 46.2895 14.5909H46.8895C46.8895 13.8212 46.7816 13.1362 46.5577 12.542L45.9962 12.7535ZM46.2895 14.5909V15.2557H46.8895V14.5909H46.2895ZM46.5895 14.9557H39.2202V15.5557H46.5895V14.9557ZM39.5202 15.2557V13.7557H38.9202V15.2557H39.5202ZM39.2202 14.0557H44.3111V13.4557H39.2202V14.0557ZM44.6111 13.7557C44.6111 13.3624 44.5251 13.0017 44.3452 12.6823L43.8224 12.9768C43.9455 13.1952 44.0111 13.452 44.0111 13.7557H44.6111ZM44.3452 12.6823C44.1668 12.3656 43.9171 12.1159 43.6004 11.9375L43.3059 12.4602C43.5271 12.5849 43.6978 12.7556 43.8224 12.9768L44.3452 12.6823ZM43.6047 11.94C43.2872 11.754 42.9246 11.6659 42.527 11.6659V12.2659C42.8339 12.2659 43.0887 12.3331 43.3015 12.4577L43.6047 11.94ZM42.527 11.6659C42.1113 11.6659 41.731 11.7629 41.3954 11.9643L41.7041 12.4788C41.9366 12.3393 42.2078 12.2659 42.527 12.2659V11.6659ZM41.3964 11.9637C41.0709 12.1573 40.8138 12.421 40.6289 12.7511L41.1524 13.0443C41.2857 12.8063 41.4679 12.6192 41.703 12.4795L41.3964 11.9637ZM40.6297 12.7496C40.4438 13.0772 40.3506 13.4401 40.3463 13.8319L40.9463 13.8385C40.9496 13.541 41.0193 13.2789 41.1515 13.0458L40.6297 12.7496ZM40.3463 13.8352V15.2614H40.9463V13.8352H40.3463ZM40.3463 15.2614C40.3463 15.7298 40.4327 16.1513 40.6173 16.5161L41.1526 16.2452C41.019 15.9812 40.9463 15.6566 40.9463 15.2614H40.3463ZM40.6186 16.5187C40.8068 16.8819 41.0755 17.1676 41.4225 17.3678L41.7224 16.8481C41.4785 16.7074 41.2889 16.5082 41.1513 16.2427L40.6186 16.5187ZM41.4225 17.3678C41.7715 17.5691 42.1756 17.6636 42.6236 17.6636V17.0636C42.261 17.0636 41.9643 16.9877 41.7224 16.8481L41.4225 17.3678ZM42.6236 17.6636C42.9208 17.6636 43.2 17.6217 43.4585 17.5341L43.2659 16.9659C43.0774 17.0298 42.8643 17.0636 42.6236 17.0636V17.6636ZM43.4585 17.5341C43.7202 17.4454 43.95 17.3101 44.143 17.1263L43.7292 16.6918C43.604 16.8111 43.4512 16.9031 43.2659 16.9659L43.4585 17.5341ZM44.143 17.1263C44.3368 16.9417 44.4821 16.7174 44.5802 16.4587L44.0192 16.2459C43.9507 16.4266 43.8535 16.5734 43.7292 16.6918L44.143 17.1263ZM44.28 16.6516L46.5186 16.7993L46.5581 16.2007L44.3195 16.0529L44.28 16.6516ZM46.2448 16.438C46.1415 16.927 45.9313 17.3496 45.614 17.7112L46.065 18.1069C46.4522 17.6656 46.7079 17.1487 46.8319 16.562L46.2448 16.438ZM45.6138 17.7114C45.3001 18.0695 44.8899 18.3546 44.3748 18.5628L44.5996 19.1191C45.1905 18.8803 45.6819 18.5441 46.0651 18.1068L45.6138 17.7114ZM44.3758 18.5624C43.8688 18.7652 43.2734 18.8705 42.5838 18.8705V19.4705C43.3336 19.4705 44.0072 19.356 44.5986 19.1195L44.3758 18.5624ZM56.071 10.2727L56.3542 10.3717L56.4937 9.97273H56.071V10.2727ZM53.0199 19V19.3H53.2328L53.3031 19.099L53.0199 19ZM50.2926 19L50.0094 19.099L50.0797 19.3H50.2926V19ZM47.2415 10.2727V9.97273H46.8188L46.9583 10.3717L47.2415 10.2727ZM49.7983 10.2727L50.0864 10.1891L50.0236 9.97273H49.7983V10.2727ZM51.6108 16.517L51.3227 16.6007L51.3855 16.817H51.6108V16.517ZM51.7017 16.517V16.817H51.9272L51.9899 16.6004L51.7017 16.517ZM53.5085 10.2727V9.97273H53.283L53.2203 10.1893L53.5085 10.2727ZM55.7878 10.1737L52.7367 18.901L53.3031 19.099L56.3542 10.3717L55.7878 10.1737ZM53.0199 18.7H50.2926V19.3H53.0199V18.7ZM50.5758 18.901L47.5247 10.1737L46.9583 10.3717L50.0094 19.099L50.5758 18.901ZM47.2415 10.5727H49.7983V9.97273H47.2415V10.5727ZM49.5102 10.3564L51.3227 16.6007L51.8989 16.4334L50.0864 10.1891L49.5102 10.3564ZM51.6108 16.817H51.7017V16.217H51.6108V16.817ZM51.9899 16.6004L53.7967 10.3561L53.2203 10.1893L51.4135 16.4337L51.9899 16.6004ZM53.5085 10.5727H56.071V9.97273H53.5085V10.5727ZM61.0582 19H60.7582V19.3H61.0582V19ZM61.0582 7.36364V7.06364H60.7582V7.36364H61.0582ZM63.5185 7.36364H63.8185V7.06364H63.5185V7.36364ZM63.5185 16.9716H63.2185V17.2716H63.5185V16.9716ZM68.5071 16.9716H68.8071V16.6716H68.5071V16.9716ZM68.5071 19V19.3H68.8071V19H68.5071ZM61.3582 19V7.36364H60.7582V19H61.3582ZM61.0582 7.66364H63.5185V7.06364H61.0582V7.66364ZM63.2185 7.36364V16.9716H63.8185V7.36364H63.2185ZM63.5185 17.2716H68.5071V16.6716H63.5185V17.2716ZM68.2071 16.9716V19H68.8071V16.9716H68.2071ZM68.5071 18.7H61.0582V19.3H68.5071V18.7ZM70.0909 19H69.7909V19.3H70.0909V19ZM70.0909 10.2727V9.97273H69.7909V10.2727H70.0909ZM72.5114 10.2727H72.8114V9.97273H72.5114V10.2727ZM72.5114 19V19.3H72.8114V19H72.5114ZM70.3807 8.78977L70.1734 9.00673L70.1768 9.00984L70.3807 8.78977ZM70.3807 7.0625L70.5862 7.28106L70.5863 7.28096L70.3807 7.0625ZM72.2273 7.0625L72.02 7.27946L72.0234 7.28257L72.2273 7.0625ZM72.2273 8.78977L72.4328 9.00833L72.4329 9.00823L72.2273 8.78977ZM70.3909 19V10.2727H69.7909V19H70.3909ZM70.0909 10.5727H72.5114V9.97273H70.0909V10.5727ZM72.2114 10.2727V19H72.8114V10.2727H72.2114ZM72.5114 18.7H70.0909V19.3H72.5114V18.7ZM71.3068 8.84773C71.0205 8.84773 70.7852 8.75556 70.5846 8.5697L70.1768 9.00984C70.4913 9.30126 70.8734 9.44773 71.3068 9.44773V8.84773ZM70.5879 8.57284C70.3906 8.38441 70.3 8.17192 70.3 7.92045H69.7C69.7 8.34323 69.8632 8.71029 70.1735 9.00671L70.5879 8.57284ZM70.3 7.92045C70.3 7.674 70.3896 7.46587 70.5862 7.28106L70.1752 6.84394C69.8641 7.1364 69.7 7.50025 69.7 7.92045H70.3ZM70.5863 7.28096C70.7872 7.09191 71.0219 6.99886 71.3068 6.99886V6.39886C70.872 6.39886 70.4894 6.54824 70.1751 6.84404L70.5863 7.28096ZM71.3068 6.99886C71.5917 6.99886 71.8236 7.09181 72.0201 7.27943L72.4345 6.84557C72.1233 6.54834 71.7417 6.39886 71.3068 6.39886V6.99886ZM72.0234 7.28257C72.2234 7.46784 72.3136 7.67555 72.3136 7.92045H72.9136C72.9136 7.49869 72.7463 7.13443 72.4312 6.84243L72.0234 7.28257ZM72.3136 7.92045C72.3136 8.17039 72.2223 8.38244 72.0217 8.57131L72.4329 9.00823C72.7474 8.71225 72.9136 8.34476 72.9136 7.92045H72.3136ZM72.0218 8.57122C71.8256 8.75566 71.5931 8.84773 71.3068 8.84773V9.44773C71.7403 9.44773 72.1214 9.30116 72.4328 9.00833L72.0218 8.57122ZM76.8707 13.9545L76.5707 13.9515V13.9545H76.8707ZM76.8707 19V19.3H77.1707V19H76.8707ZM74.4503 19H74.1503V19.3H74.4503V19ZM74.4503 10.2727V9.97273H74.1503V10.2727H74.4503ZM76.7571 10.2727H77.0571V9.97273H76.7571V10.2727ZM76.7571 11.8125H76.4571V12.1125H76.7571V11.8125ZM76.8594 11.8125V12.1125H77.0662L77.1398 11.9192L76.8594 11.8125ZM77.831 10.608L77.9945 10.8595L77.9959 10.8585L77.831 10.608ZM81.0696 10.5568L81.2217 10.2982L81.0696 10.5568ZM82.1207 11.6932L81.8532 11.829L81.8537 11.8298L82.1207 11.6932ZM82.4957 19V19.3H82.7957V19H82.4957ZM80.0753 19H79.7753V19.3H80.0753V19ZM80.0753 13.875L79.7753 13.8729V13.875H80.0753ZM79.6662 12.625L79.4446 12.8272L79.4459 12.8286L79.6662 12.625ZM77.6605 12.3807L77.5138 12.119L77.5121 12.12L77.6605 12.3807ZM77.081 12.9943L76.8149 12.8557L76.8142 12.8571L77.081 12.9943ZM76.5707 13.9545V19H77.1707V13.9545H76.5707ZM76.8707 18.7H74.4503V19.3H76.8707V18.7ZM74.7503 19V10.2727H74.1503V19H74.7503ZM74.4503 10.5727H76.7571V9.97273H74.4503V10.5727ZM76.4571 10.2727V11.8125H77.0571V10.2727H76.4571ZM76.7571 12.1125H76.8594V11.5125H76.7571V12.1125ZM77.1398 11.9192C77.3104 11.471 77.5933 11.1202 77.9945 10.8595L77.6675 10.3564C77.1595 10.6866 76.7948 11.1389 76.579 11.7058L77.1398 11.9192ZM77.9959 10.8585C78.3928 10.5972 78.8839 10.4591 79.4844 10.4591V9.85909C78.7893 9.85909 78.1782 10.0202 77.666 10.3574L77.9959 10.8585ZM79.4844 10.4591C80.0456 10.4591 80.5197 10.5814 80.9175 10.8154L81.2217 10.2982C80.718 10.0019 80.1353 9.85909 79.4844 9.85909V10.4591ZM80.9175 10.8154C81.316 11.0498 81.6277 11.3847 81.8532 11.829L82.3882 11.5574C82.1138 11.0168 81.7247 10.5941 81.2217 10.2982L80.9175 10.8154ZM81.8537 11.8298C82.0775 12.2674 82.1957 12.8017 82.1957 13.4432H82.7957C82.7957 12.7286 82.664 12.0963 82.3878 11.5565L81.8537 11.8298ZM82.1957 13.4432V19H82.7957V13.4432H82.1957ZM82.4957 18.7H80.0753V19.3H82.4957V18.7ZM80.3753 19V13.875H79.7753V19H80.3753ZM80.3753 13.8771C80.3794 13.2912 80.2292 12.7923 79.8865 12.4214L79.4459 12.8286C79.6562 13.0562 79.7787 13.3906 79.7753 13.8729L80.3753 13.8771ZM79.8878 12.4228C79.5441 12.0461 79.0766 11.8705 78.5241 11.8705V12.4705C78.9414 12.4705 79.2353 12.5979 79.4446 12.8272L79.8878 12.4228ZM78.5241 11.8705C78.1541 11.8705 77.8145 11.9505 77.5138 12.119L77.8072 12.6424C78.0066 12.5306 78.2426 12.4705 78.5241 12.4705V11.8705ZM77.5121 12.12C77.2122 12.2907 76.9798 12.5394 76.8149 12.8557L77.347 13.133C77.4625 12.9114 77.6164 12.751 77.8089 12.6414L77.5121 12.12ZM76.8142 12.8571C76.6517 13.1731 76.5749 13.5416 76.5708 13.9515L77.1707 13.9576C77.1742 13.6175 77.2375 13.3458 77.3478 13.1315L76.8142 12.8571ZM86.5966 16.4886L86.2966 16.488L86.295 17.2883L86.8223 16.6863L86.5966 16.4886ZM86.6023 13.5852V13.2852H86.3029L86.3023 13.5846L86.6023 13.5852ZM86.9545 13.5852V13.8852H87.0939L87.1838 13.7787L86.9545 13.5852ZM89.75 10.2727V9.97273H89.6106L89.5207 10.0792L89.75 10.2727ZM92.5284 10.2727L92.7563 10.4678L93.1802 9.97273H92.5284V10.2727ZM88.7727 14.6591V14.9591H88.9108L89.0006 14.8542L88.7727 14.6591ZM88.1989 14.6591V14.3591H88.0628L87.9732 14.4614L88.1989 14.6591ZM84.4034 19H84.1034V19.3H84.4034V19ZM84.4034 7.36364V7.06364H84.1034V7.36364H84.4034ZM86.8239 7.36364H87.1239V7.06364H86.8239V7.36364ZM86.8239 19V19.3H87.1239V19H86.8239ZM89.858 19L89.6094 19.168L89.6986 19.3H89.858V19ZM87.2898 15.1989L87.0716 14.993L86.9067 15.1677L87.0412 15.3668L87.2898 15.1989ZM88.9034 13.4886L89.1506 13.3187L88.9401 13.0126L88.6852 13.2828L88.9034 13.4886ZM92.6932 19V19.3H93.2636L92.9404 18.83L92.6932 19ZM86.8966 16.4892L86.9023 13.5858L86.3023 13.5846L86.2966 16.488L86.8966 16.4892ZM86.6023 13.8852H86.9545V13.2852H86.6023V13.8852ZM87.1838 13.7787L89.9793 10.4662L89.5207 10.0792L86.7253 13.3917L87.1838 13.7787ZM89.75 10.5727H92.5284V9.97273H89.75V10.5727ZM92.3005 10.0776L88.5448 14.464L89.0006 14.8542L92.7563 10.4678L92.3005 10.0776ZM88.7727 14.3591H88.1989V14.9591H88.7727V14.3591ZM87.9732 14.4614L86.3709 16.291L86.8223 16.6863L88.4246 14.8567L87.9732 14.4614ZM84.7034 19V7.36364H84.1034V19H84.7034ZM84.4034 7.66364H86.8239V7.06364H84.4034V7.66364ZM86.5239 7.36364V19H87.1239V7.36364H86.5239ZM86.8239 18.7H84.4034V19.3H86.8239V18.7ZM90.1065 18.832L87.5384 15.0309L87.0412 15.3668L89.6094 19.168L90.1065 18.832ZM87.508 15.4047L89.1216 13.6945L88.6852 13.2828L87.0716 14.993L87.508 15.4047ZM88.6562 13.6586L92.446 19.17L92.9404 18.83L89.1506 13.3187L88.6562 13.6586ZM92.6932 18.7H89.858V19.3H92.6932V18.7Z" fill="white"/>
<path d="M15.625 20.3125V17.9688" stroke="black" stroke-width="2" stroke-linecap="round" stroke-linejoin="round"/>
<path d="M20.3125 15.625H17.9688" stroke="#76049E" stroke-width="2" stroke-linecap="round" stroke-linejoin="round"/>
<path d="M6.93357 12.5391L5.83005 13.6426C5.09708 14.3755 4.6853 15.3697 4.6853 16.4063C4.6853 16.9195 4.7864 17.4277 4.98281 17.9019C5.17923 18.3761 5.46712 18.807 5.83005 19.1699C6.19298 19.5329 6.62384 19.8207 7.09804 20.0172C7.57223 20.2136 8.08046 20.3147 8.59372 20.3147C9.6303 20.3147 10.6244 19.9029 11.3574 19.1699L12.4609 18.0664" stroke="black" stroke-width="2" stroke-linecap="round" stroke-linejoin="round"/>
<path d="M18.0664 12.4609L19.1699 11.3574C19.9029 10.6244 20.3147 9.6303 20.3147 8.59372C20.3147 7.55715 19.9029 6.56302 19.1699 5.83005C18.437 5.09708 17.4428 4.6853 16.4063 4.6853C15.3697 4.6853 14.3755 5.09708 13.6426 5.83005L12.5391 6.93357" stroke="#76049E" stroke-width="2" stroke-linecap="round" stroke-linejoin="round"/>
</svg>
